<svg fill="none" xmlns="http://www.w3.org/2000/svg" viewBox="0 0 45 13"><path d="M6.75 6.742H1.82v4.031h5.727V12H.32V.625H7.47v1.234H1.82v3.657h4.93v1.226zm5.925 1.016H8.863v-1.18h3.812v1.18zm3.254-4.211l.039.937c.62-.729 1.456-1.093 2.508-1.093 1.182 0 1.987.453 2.414 1.359a3.213 3.213 0 011.093-.984c.454-.25.987-.375 1.602-.375 1.854 0 2.797.981 2.828 2.945V12h-1.445V6.422c0-.604-.138-1.055-.414-1.352-.276-.302-.74-.453-1.39-.453-.537 0-.983.162-1.337.485-.354.317-.56.747-.617 1.289V12h-1.453V6.46c0-1.228-.602-1.843-1.805-1.843-.948 0-1.596.404-1.945 1.211V12h-1.445V3.547h1.367zM34.299 12c-.083-.167-.15-.463-.203-.89-.672.697-1.474 1.046-2.406 1.046-.833 0-1.518-.234-2.055-.703-.53-.474-.797-1.073-.797-1.797 0-.88.334-1.562 1-2.047.672-.49 1.615-.734 2.829-.734h1.406v-.664c0-.505-.151-.906-.453-1.203-.302-.302-.748-.453-1.336-.453-.516 0-.948.13-1.297.39-.35.26-.524.576-.524.946H29.01c0-.422.149-.829.446-1.22.302-.395.708-.707 1.218-.937a4.127 4.127 0 011.696-.343c.974 0 1.737.244 2.289.734.552.484.838 1.154.86 2.008v3.89c0 .777.098 1.394.296 1.852V12h-1.516zm-2.398-1.102a2.54 2.54 0 001.289-.351c.406-.235.7-.54.883-.914V7.898H32.94c-1.77 0-2.656.519-2.656 1.555 0 .453.15.807.453 1.063.302.255.69.382 1.164.382zM39.834 12H38.39V3.547h1.445V12zM38.272 1.305c0-.235.07-.433.21-.594.146-.162.36-.242.641-.242s.495.08.64.242c.147.161.22.36.22.594 0 .234-.073.43-.22.586-.145.156-.359.234-.64.234s-.495-.078-.64-.234a.843.843 0 01-.211-.586zM44.205 12h-1.446V0h1.446v12z" fill="#fff" fill-opacity=".6"/></svg>