<svg fill="none" xmlns="http://www.w3.org/2000/svg" viewBox="0 0 143 30"><path d="M10.419 20H8.067v-9.477H3.513V20H1.169V8.625h9.25V20zm2.522-4.305c0-.838.162-1.586.485-2.242a3.553 3.553 0 011.39-1.523c.61-.36 1.315-.54 2.117-.54 1.141 0 2.07.35 2.79 1.047.724.698 1.127 1.646 1.21 2.844l.016.578c0 1.297-.362 2.339-1.086 3.125-.724.782-1.695 1.172-2.914 1.172s-2.193-.39-2.922-1.172c-.724-.78-1.086-1.843-1.086-3.187v-.102zm2.258.164c0 .803.151 1.417.453 1.844.302.422.735.633 1.297.633.547 0 .974-.208 1.281-.625.308-.422.461-1.094.461-2.016 0-.786-.153-1.396-.46-1.828-.308-.432-.74-.648-1.298-.648-.552 0-.979.216-1.28.648-.303.427-.454 1.091-.454 1.992zm7.655 2.32c.51-.541.857-1.077 1.04-1.609.182-.53.283-1.284.304-2.258l.063-2.765h6.218v6.633h1.22v4.36H29.44V20h-5.008v2.54h-2.304v-4.36h.726zm2.664 0h2.711v-4.765h-1.757l-.016 1.016c-.047 1.552-.36 2.802-.938 3.75zM41.018 20h-2.266v-6.625h-2.828V20h-2.258v-8.453h7.352V20zm7.78-8.453h2.258V20h-2.258v-5.219L45.97 20h-2.266v-8.453h2.266v5.21l2.828-5.21zm8.46 6.789c.416 0 .755-.115 1.015-.344.26-.229.396-.534.407-.914h2.117a2.915 2.915 0 01-.469 1.578c-.307.474-.729.844-1.266 1.11-.53.26-1.12.39-1.765.39-1.208 0-2.162-.383-2.86-1.148-.697-.771-1.046-1.834-1.046-3.188v-.148c0-1.302.346-2.341 1.039-3.117.692-.776 1.643-1.164 2.851-1.164 1.058 0 1.904.302 2.54.906.64.599.965 1.398.976 2.398H58.68c-.01-.437-.146-.791-.407-1.062-.26-.276-.604-.414-1.03-.414-.527 0-.925.193-1.196.578-.266.38-.399 1-.399 1.86v.234c0 .87.133 1.494.399 1.875.266.38.67.57 1.21.57zM67.944 20a2.507 2.507 0 01-.226-.758c-.547.61-1.258.914-2.133.914-.828 0-1.516-.24-2.062-.718a2.316 2.316 0 01-.813-1.813c0-.896.33-1.583.992-2.063.667-.479 1.628-.72 2.883-.726h1.04v-.484c0-.391-.103-.704-.306-.938-.198-.234-.513-.351-.945-.351-.38 0-.68.09-.898.273-.214.182-.32.432-.32.75h-2.259c0-.49.151-.943.454-1.36.302-.416.729-.742 1.28-.976.553-.24 1.173-.36 1.86-.36 1.042 0 1.867.264 2.477.79.614.52.922 1.255.922 2.203v3.664c.005.802.117 1.409.336 1.82V20h-2.282zm-1.867-1.57c.334 0 .64-.073.922-.22.281-.15.49-.35.625-.6v-1.454h-.844c-1.13 0-1.731.39-1.804 1.172l-.008.133c0 .281.099.513.297.695.198.183.468.274.812.274zm13.398-5.07h-2.711V20h-2.266v-6.64h-2.664v-1.813h7.64v1.812zm4.514.663h1.618c.729 0 1.37.123 1.921.368.552.244.974.596 1.266 1.054.297.453.445.982.445 1.586 0 .89-.33 1.61-.992 2.157-.656.541-1.552.812-2.687.812h-3.836v-8.453h2.265v2.476zm0 1.813v2.36h1.602c.448 0 .792-.105 1.031-.313.24-.209.36-.492.36-.852 0-.364-.118-.653-.352-.867-.234-.219-.58-.328-1.04-.328h-1.6zm11 2.5c.416 0 .755-.115 1.015-.344.26-.229.396-.534.406-.914h2.118a2.915 2.915 0 01-.47 1.578c-.307.474-.728.844-1.265 1.11-.531.26-1.12.39-1.766.39-1.208 0-2.161-.383-2.859-1.148-.698-.771-1.047-1.834-1.047-3.188v-.148c0-1.302.347-2.341 1.04-3.117.692-.776 1.642-1.164 2.85-1.164 1.058 0 1.904.302 2.54.906.64.599.966 1.398.977 2.398H96.41c-.01-.437-.145-.791-.406-1.062-.26-.276-.604-.414-1.031-.414-.526 0-.925.193-1.195.578-.266.38-.399 1-.399 1.86v.234c0 .87.133 1.494.398 1.875.266.38.67.57 1.211.57zm12.834-6.79V20h-2.25v-2.922h-1.429L102.519 20h-2.289l1.843-3.305c-.505-.234-.895-.552-1.171-.953a2.386 2.386 0 01-.407-1.367c0-.818.315-1.487.946-2.008.635-.526 1.484-.8 2.547-.82h3.835zm-3.796 3.954h1.546v-2.14h-1.468c-.401 0-.727.106-.977.32-.25.208-.375.463-.375.765s.12.552.36.75c.239.198.544.3.914.305zM143 3l-24 13.5 7.67 2.84L138.5 8.25l-8.998 12.14.007.002-.009-.002V27l4.301-5.018L139.25 24 143 3z" fill="#fff"/></svg>